# xmcd CD database file
#
# Track frame offsets:
#	150
#	24825
#	45725
#	51667
#	68589
#	99349
#	120198
#	149192
#	187634
#	214206
#	247445
#	271640
#	285827
#	303775
#	319246
#	340671
#
# Disc length: 4734 seconds
#
# Revision: 0
# Processed by: cddbd v1.5.2PL0 Copyright (c) Steve Scherf et al.
# Submitted via: CDex 1.70beta2
#
DISCID=e0127c10
DTITLE=Paolo Fresu - The Blue Note Years CD2
DYEAR=2010
DGENRE=Jazz
TTITLE0=Si Dolce È Il Tormento
TTITLE1=Cheney's Dick
TTITLE2=Frammento Del Coraggioso
TTITLE3=Sonia Said
TTITLE4=Fellini
TTITLE5=Solar
TTITLE6=Il Tempo Del Sogno
TTITLE7=Devil's Game - Labbra Bianche - Medley
TTITLE8=Il Diavolo E L'Acquasanta
TTITLE9=Another Road To Timbuctu
TTITLE10=Lascia Ch'Lo Pianga
TTITLE11=Think
TTITLE12=Ossi
TTITLE13=Tema Celeste
TTITLE14=Blood Money
TTITLE15=In Memoriam
EXTD=YEAR: 2010
EXTT0=
EXTT1=
EXTT2=
EXTT3=
EXTT4=
EXTT5=
EXTT6=
EXTT7=
EXTT8=
EXTT9=
EXTT10=
EXTT11=
EXTT12=
EXTT13=
EXTT14=
EXTT15=
PLAYORDER=
